<svg width="57" height="20" viewBox="0 0 57 20" fill="none" xmlns="http://www.w3.org/2000/svg">
<path d="M55.0775 18.5H55.5775V18V10C55.5775 8.78343 55.3409 7.63815 54.8646 6.56982C54.4143 5.4911 53.7928 4.55217 52.9991 3.75845C52.2053 2.96472 51.2664 2.3432 50.1877 1.8929C49.1193 1.41656 47.9741 1.18 46.7575 1.18C45.5396 1.18 44.3839 1.41708 43.2954 1.8929C42.2367 2.34375 41.3088 2.96562 40.5159 3.75845C39.7227 4.55174 39.0909 5.48985 38.6194 6.56759L38.6194 6.56758L38.6174 6.57222C38.1629 7.6403 37.9375 8.78463 37.9375 10C37.9375 11.2154 38.1629 12.369 38.616 13.4563L38.6158 13.4564L38.621 13.468C39.0929 14.5241 39.7244 15.45 40.5159 16.2416C41.3057 17.0313 42.2194 17.6626 43.2539 18.1348L43.2538 18.135L43.2657 18.1401C44.3314 18.5936 45.4541 18.82 46.6295 18.82C48.3712 18.82 49.9257 18.3317 51.2744 17.3492C52.0739 16.776 52.7487 16.0993 53.2975 15.3214V18V18.5H53.7975H55.0775ZM52.7916 7.43951L52.7916 7.43952L52.7933 7.44357C53.1282 8.23149 53.2975 9.08189 53.2975 10C53.2975 10.9173 53.1285 11.7793 52.7925 12.5904C52.4543 13.3854 51.989 14.0774 51.396 14.6704C50.8014 15.265 50.1071 15.7421 49.3091 16.1019C48.5225 16.4354 47.6737 16.604 46.7575 16.604C45.8413 16.604 44.9925 16.4354 44.2059 16.1019C43.4079 15.7422 42.7136 15.265 42.1191 14.6704C41.526 14.0774 41.0607 13.3854 40.7225 12.5905C40.3865 11.7793 40.2175 10.9173 40.2175 10C40.2175 9.08189 40.3868 8.23149 40.7217 7.44357L40.7217 7.44358L40.7234 7.43951C41.0621 6.62259 41.5276 5.92104 42.1191 5.32956C42.7126 4.73601 43.4053 4.27038 44.2011 3.93217L44.2011 3.93227L44.2107 3.92796C44.9964 3.5744 45.8434 3.396 46.7575 3.396C47.6716 3.396 48.5186 3.5744 49.3043 3.92796L49.3043 3.92806L49.3139 3.93217C50.1097 4.27038 50.8024 4.73601 51.396 5.32956C51.9874 5.92104 52.4529 6.62259 52.7916 7.43951Z" fill="black" stroke="black"/>
<path d="M35.1725 1.5H34.8564L34.7208 1.78549L28.1965 15.5225L21.6721 1.78549L21.5365 1.5H21.2205H19.8765H19.0818L19.4257 2.21637L27.1057 18.2164L27.2418 18.5H27.5565H28.8365H29.1511L29.2872 18.2164L36.9672 2.21637L37.3111 1.5H36.5165H35.1725Z" fill="black" stroke="black"/>
<path d="M17.64 18.5H18.14V18V10C18.14 8.78343 17.9034 7.63815 17.4271 6.56982C16.9768 5.4911 16.3553 4.55217 15.5616 3.75845C14.7678 2.96472 13.8289 2.3432 12.7502 1.8929C11.6818 1.41656 10.5366 1.18 9.32 1.18C8.10206 1.18 6.94639 1.41708 5.85792 1.8929C4.7992 2.34375 3.87128 2.96562 3.07845 3.75845C2.28516 4.55174 1.65343 5.48985 1.18192 6.56759L1.1819 6.56758L1.17992 6.57222C0.725423 7.6403 0.5 8.78463 0.5 10C0.5 11.2154 0.725428 12.369 1.17846 13.4563L1.17831 13.4564L1.1835 13.468C1.65538 14.5241 2.2869 15.45 3.07845 16.2416C3.86823 17.0313 4.78193 17.6626 5.81635 18.1348L5.81628 18.135L5.82822 18.1401C6.89393 18.5936 8.01663 18.82 9.192 18.82C10.9337 18.82 12.4882 18.3317 13.8369 17.3492C14.6364 16.776 15.3112 16.0993 15.86 15.3214V18V18.5H16.36H17.64ZM15.3541 7.43951L15.3541 7.43952L15.3558 7.44357C15.6907 8.23149 15.86 9.08189 15.86 10C15.86 10.9173 15.691 11.7793 15.355 12.5904C15.0168 13.3854 14.5515 14.0774 13.9584 14.6704C13.3639 15.265 12.6696 15.7421 11.8716 16.1019C11.085 16.4354 10.2362 16.604 9.32 16.604C8.40377 16.604 7.55497 16.4354 6.76842 16.1019C5.97044 15.7422 5.27608 15.265 4.68155 14.6704C4.08852 14.0774 3.62318 13.3854 3.28503 12.5905C2.94901 11.7793 2.78 10.9173 2.78 10C2.78 9.08189 2.9493 8.23149 3.28417 7.44357L3.28418 7.44358L3.28587 7.43951C3.62459 6.62259 4.09007 5.92104 4.68155 5.32956C5.2751 4.73601 5.96777 4.27038 6.76357 3.93217L6.76361 3.93227L6.77318 3.92796C7.55887 3.5744 8.40588 3.396 9.32 3.396C10.2341 3.396 11.0811 3.5744 11.8668 3.92796L11.8668 3.92806L11.8764 3.93217C12.6722 4.27038 13.3649 4.73601 13.9584 5.32956C14.5499 5.92104 15.0154 6.62259 15.3541 7.43951Z" fill="black" stroke="black"/>
</svg>
